<svg width="200" height="200" viewBox="0 0 200 200" fill="none" xmlns="http://www.w3.org/2000/svg">
<rect width="200" height="200" rx="24" fill="#C2410C"/>
<path d="M85.75 104.988C85.75 112.73 92.115 119 100 119C107.885 119 114.25 112.73 114.25 104.988C114.25 98.765 111.733 96.96 100 83.375C88.125 97.055 85.75 98.8125 85.75 104.988ZM138 104.75C140.613 104.75 142.75 102.613 142.75 100C142.75 97.3875 140.613 95.25 138 95.25H133.25V66.75H138C140.613 66.75 142.75 64.6125 142.75 62C142.75 59.3875 140.613 57.25 138 57.25H62C59.3875 57.25 57.25 59.3875 57.25 62C57.25 64.6125 59.3875 66.75 62 66.75H66.75V95.25H62C59.3875 95.25 57.25 97.3875 57.25 100C57.25 102.613 59.3875 104.75 62 104.75H66.75V133.25H62C59.3875 133.25 57.25 135.387 57.25 138C57.25 140.613 59.3875 142.75 62 142.75H138C140.613 142.75 142.75 140.613 142.75 138C142.75 135.387 140.613 133.25 138 133.25H133.25V104.75H138ZM123.75 133.25H76.25V104.75C78.8625 104.75 81 102.613 81 100C81 97.3875 78.8625 95.25 76.25 95.25V66.75H123.75V95.25C121.137 95.25 119 97.3875 119 100C119 102.613 121.137 104.75 123.75 104.75V133.25Z" fill="#F3F4F6"/>
</svg>
